<?xml version="1.0" encoding="utf-8"?>
<!-- Generator: Adobe Illustrator 19.2.0, SVG Export Plug-In . SVG Version: 6.00 Build 0)  -->
<svg version="1.1" id="图层_1" xmlns="http://www.w3.org/2000/svg" xmlns:xlink="http://www.w3.org/1999/xlink" x="0px" y="0px"
	 viewBox="0 0 188.9 73.8" style="enable-background:new 0 0 188.9 73.8;" xml:space="preserve">
<style type="text/css">
	.st0{fill:#00A0DF;}
	.st1{fill:#E3003E;}
	.st2{fill:#00A148;}
	.st3{fill:#F5A500;}
	.st4{fill:#FFFFFF;}
	.st5{font-family:'Avenir-Roman';}
	.st6{font-size:63.5464px;}
</style>
<g>
	<path class="st0" d="M163,29.9c-1.9,0.8-3.3,2.2-4.2,3.9c3.2-0.1,6.3,1.8,7.6,4.9c0.8,2.1,0.7,4.4-0.3,6.3c0.9,0,1.8-0.2,2.6-0.5
		c4-1.6,6-6.2,4.4-10.2C171.6,30.3,167,28.3,163,29.9z"/>
	<g>
		<path class="st1" d="M150.6,47.9c0.8,1.9,2.2,3.3,3.9,4.2c-0.1-3.2,1.8-6.3,4.9-7.6c2.1-0.8,4.4-0.7,6.3,0.3
			c0-0.9-0.2-1.8-0.5-2.6c-1.6-4-6.2-6-10.2-4.4C151,39.2,149,43.8,150.6,47.9z"/>
	</g>
	<path class="st2" d="M168.5,60.3c1.9-0.7,3.3-2.2,4.2-3.9c-3.2,0.1-6.3-1.8-7.6-5c-0.8-2.1-0.7-4.4,0.3-6.3c-0.9,0-1.8,0.2-2.6,0.5
		c-4.1,1.6-6.1,6.2-4.5,10.2C159.9,59.9,164.5,61.9,168.5,60.3z"/>
	<path class="st3" d="M181,42.3c-0.8-1.9-2.2-3.3-3.9-4.2c0.1,3.2-1.8,6.3-4.9,7.6c-2.1,0.8-4.4,0.7-6.3-0.3c0,0.9,0.2,1.8,0.5,2.6
		c1.6,4,6.2,6,10.2,4.4C180.6,50.9,182.6,46.4,181,42.3z"/>
</g>
<text transform="matrix(1 0 0 1 6 60.1577)" class="st4 st5 st6">echo</text>
</svg>
